<?xml version="1.0"?>
<svg width="750" height="500" xmlns="http://www.w3.org/2000/svg" xmlns:svg="http://www.w3.org/2000/svg" enable-background="new 0 0 750 500" version="1.1" xml:space="preserve">
 <g class="layer">
  <title>Layer 1</title>
  <g id="OBJECTS">
   <g id="svg_2">
    <g id="svg_3">
     <g id="svg_4">
      <path d="m369.44,152.25l-117.34,0c-1.77,0 -3.21,-1.43 -3.21,-3.2l0,-68.34c0,-1.77 1.44,-3.21 3.21,-3.21l117.34,0c1.77,0 3.2,1.44 3.2,3.21l0,68.34c0,1.77 -1.43,3.2 -3.2,3.2z" fill="none" id="svg_5" stroke="#C0CCD8" stroke-miterlimit="10"/>
      <line fill="none" id="svg_6" stroke="#C0CCD8" stroke-miterlimit="10" x1="248.89" x2="372.64" y1="91.05" y2="91.05"/>
      <circle cx="256.88" cy="84.35" fill="none" id="svg_7" r="1.98" stroke="#C0CCD8" stroke-miterlimit="10"/>
      <path d="m267,84.35c0,1.09 -0.88,1.98 -1.98,1.98c-1.09,0 -1.98,-0.89 -1.98,-1.98s0.89,-1.98 1.98,-1.98c1.09,0 1.98,0.89 1.98,1.98z" fill="none" id="svg_8" stroke="#C0CCD8" stroke-miterlimit="10"/>
      <path d="m275.14,84.35c0,1.09 -0.89,1.98 -1.98,1.98c-1.09,0 -1.98,-0.89 -1.98,-1.98s0.89,-1.98 1.98,-1.98c1.09,0 1.98,0.89 1.98,1.98z" fill="none" id="svg_9" stroke="#C0CCD8" stroke-miterlimit="10"/>
     </g>
     <g id="svg_10">
      <g id="svg_11">
       <g id="svg_12">
        <path d="m183.97,160.07l29.26,0c2.83,0 5.12,-2.29 5.12,-5.12l0,-29.26c0,-2.83 -2.29,-5.12 -5.12,-5.12l-29.26,0c-2.83,0 -5.12,2.29 -5.12,5.12l0,29.26c0,2.83 2.29,5.12 5.12,5.12z" fill="none" id="svg_13" stroke="#C0CCD8" stroke-linejoin="round" stroke-miterlimit="10"/>
       </g>
       <g id="svg_14">
        <circle cx="198.6" cy="140.32" fill="none" id="svg_15" r="11.31" stroke="#C0CCD8" stroke-miterlimit="10" stroke-width="3"/>
        <line fill="none" id="svg_16" stroke="#C0CCD8" stroke-miterlimit="10" stroke-width="3" x1="206.24" x2="190.27" y1="132.34" y2="148.31"/>
       </g>
      </g>
     </g>
     <path d="m480.24,151.09l-8.19,-8.49l-126.09,0c-5.9,0 -10.68,-4.78 -10.68,-10.68l0,-65.56c0,-5.9 4.78,-10.68 10.68,-10.68l126.65,0c5.9,0 10.68,4.78 10.68,10.68l0,83.5c0,1.59 -1.94,2.38 -3.05,1.23z" fill="#FFFFFF" id="svg_17" stroke="#C0CCD8" stroke-linejoin="round" stroke-miterlimit="10"/>
     <g id="svg_18">
      <g id="svg_19">
       <path d="m385.96,113.29l-5.43,0l0,9.54l-13.14,0l0,-9.54l-19.64,0l0,-9.77l20.49,-29.95l12.29,0l0,29.78l5.43,0l0,9.94zm-18.57,-9.94l0,-5.73c0,-1.07 0.04,-2.53 0.12,-4.36c0.08,-1.83 0.14,-2.79 0.19,-2.88l-0.37,0c-0.77,1.73 -1.63,3.35 -2.6,4.85l-5.46,8.12l8.12,0z" fill="#F76652" id="svg_20"/>
       <path d="m427.01,98.26c0,8.72 -1.46,15.1 -4.38,19.16c-2.92,4.05 -7.39,6.08 -13.41,6.08c-5.89,0 -10.32,-2.12 -13.31,-6.35c-2.99,-4.24 -4.48,-10.53 -4.48,-18.89c0,-8.76 1.46,-15.18 4.38,-19.27c2.92,-4.08 7.39,-6.13 13.41,-6.13c5.86,0 10.29,2.13 13.29,6.38c3,4.26 4.5,10.6 4.5,19.02zm-22.34,0c0,5.57 0.35,9.4 1.04,11.49c0.7,2.09 1.87,3.14 3.51,3.14c1.66,0 2.83,-1.08 3.52,-3.24c0.68,-2.15 1.02,-5.95 1.02,-11.39c0,-5.45 -0.34,-9.28 -1.04,-11.47c-0.7,-2.19 -1.86,-3.28 -3.5,-3.28c-1.64,0 -2.81,1.05 -3.51,3.16c-0.69,2.12 -1.04,5.98 -1.04,11.59z" fill="#F76652" id="svg_21"/>
       <path d="m470.82,113.29l-5.43,0l0,9.54l-13.14,0l0,-9.54l-19.64,0l0,-9.77l20.48,-29.95l12.3,0l0,29.78l5.43,0l0,9.94zm-18.57,-9.94l0,-5.73c0,-1.07 0.04,-2.53 0.12,-4.36c0.08,-1.83 0.14,-2.79 0.19,-2.88l-0.37,0c-0.77,1.73 -1.63,3.35 -2.6,4.85l-5.46,8.12l8.12,0z" fill="#F76652" id="svg_22"/>
      </g>
     </g>
     <g id="svg_23">
      <g id="svg_24">
       <g id="svg_25">
        <path d="m599.05,275.09l29.26,0c2.83,0 5.12,-2.29 5.12,-5.12l0,-29.26c0,-2.83 -2.29,-5.12 -5.12,-5.12l-29.26,0c-2.83,0 -5.12,2.29 -5.12,5.12l0,29.26c0,2.83 2.29,5.12 5.12,5.12z" fill="none" id="svg_26" stroke="#C0CCD8" stroke-linejoin="round" stroke-miterlimit="10"/>
       </g>
       <g id="svg_27">
        <g id="svg_28">
         <path d="m626.41,266.43c-0.15,0.05 -0.31,0.08 -0.47,0.08l-24.52,0.01c-0.51,0 -0.99,-0.27 -1.24,-0.72c-0.26,-0.44 -0.26,-0.99 0,-1.44l12.25,-21.23c0.25,-0.45 0.73,-0.72 1.24,-0.72c0.51,0 0.99,0.27 1.25,0.72l12.26,21.22c0.26,0.45 0.26,1 0.01,1.44c-0.18,0.3 -0.46,0.53 -0.78,0.64zm-24.31,-1.74l23.16,-0.01l-11.59,-20.05l-11.57,20.06z" fill="#C0CCD8" id="svg_29"/>
        </g>
        <path d="m613.68,260.47l0,0c-0.47,0 -0.85,-0.36 -0.87,-0.83l-0.49,-8.35c-0.04,-0.78 0.58,-1.43 1.36,-1.43l0,0c0.77,0 1.39,0.65 1.36,1.42l-0.49,8.36c-0.03,0.47 -0.41,0.83 -0.87,0.83z" fill="#C0CCD8" id="svg_30"/>
        <path d="m614.56,262.49c0,0.48 -0.39,0.88 -0.88,0.88c-0.49,0 -0.89,-0.39 -0.89,-0.88c0,-0.49 0.4,-0.89 0.89,-0.89c0.49,0 0.88,0.4 0.88,0.89z" fill="#C0CCD8" id="svg_31"/>
       </g>
      </g>
     </g>
     <path d="m96.44,204.5c0,1.23 -1,2.23 -2.23,2.23c-1.23,0 -2.22,-1 -2.22,-2.23c0,-1.23 0.99,-2.23 2.22,-2.23c1.23,0 2.23,1 2.23,2.23z" fill="none" id="svg_32" stroke="#C0CCD8" stroke-linecap="round" stroke-linejoin="round" stroke-miterlimit="10"/>
     <path d="m470.82,323.31c0,1.24 -1,2.23 -2.23,2.23c-1.23,0 -2.23,-1 -2.23,-2.23c0,-1.23 1,-2.22 2.23,-2.22c1.23,-0.01 2.23,0.99 2.23,2.22z" fill="none" id="svg_33" stroke="#C0CCD8" stroke-linecap="round" stroke-linejoin="round" stroke-miterlimit="10"/>
     <path d="m623.94,140.32c0,1.24 -1,2.23 -2.23,2.23s-2.22,-1 -2.22,-2.23c0,-1.23 0.99,-2.22 2.22,-2.22s2.23,0.99 2.23,2.22z" fill="none" id="svg_34" stroke="#C0CCD8" stroke-linecap="round" stroke-linejoin="round" stroke-miterlimit="10"/>
     <path d="m503.66,71.4c0,1.23 -1,2.23 -2.23,2.23c-1.23,0 -2.22,-1 -2.22,-2.23c0,-1.23 0.99,-2.22 2.22,-2.22c1.23,0 2.23,0.99 2.23,2.22z" fill="none" id="svg_35" stroke="#C0CCD8" stroke-linecap="round" stroke-linejoin="round" stroke-miterlimit="10"/>
     <g id="svg_36">
      <line fill="none" id="svg_37" stroke="#C0CCD8" stroke-linecap="round" stroke-linejoin="round" stroke-miterlimit="10" x1="619.49" x2="619.49" y1="213.2" y2="220.1"/>
      <line fill="none" id="svg_38" stroke="#C0CCD8" stroke-linecap="round" stroke-linejoin="round" stroke-miterlimit="10" x1="622.93" x2="616.03" y1="216.65" y2="216.65"/>
     </g>
     <g id="svg_39">
      <line fill="none" id="svg_40" stroke="#C0CCD8" stroke-linecap="round" stroke-linejoin="round" stroke-miterlimit="10" x1="439.1" x2="439.1" y1="346.14" y2="353.04"/>
      <line fill="none" id="svg_41" stroke="#C0CCD8" stroke-linecap="round" stroke-linejoin="round" stroke-miterlimit="10" x1="442.55" x2="435.65" y1="349.59" y2="349.59"/>
     </g>
     <g id="svg_42">
      <line fill="none" id="svg_43" stroke="#C0CCD8" stroke-linecap="round" stroke-linejoin="round" stroke-miterlimit="10" x1="293.16" x2="293.16" y1="58.68" y2="65.58"/>
      <line fill="none" id="svg_44" stroke="#C0CCD8" stroke-linecap="round" stroke-linejoin="round" stroke-miterlimit="10" x1="296.61" x2="289.71" y1="62.13" y2="62.13"/>
     </g>
     <g id="svg_45">
      <line fill="none" id="svg_46" stroke="#C0CCD8" stroke-linecap="round" stroke-linejoin="round" stroke-miterlimit="10" x1="138.7" x2="138.7" y1="125.38" y2="132.28"/>
      <line fill="none" id="svg_47" stroke="#C0CCD8" stroke-linecap="round" stroke-linejoin="round" stroke-miterlimit="10" x1="142.15" x2="135.25" y1="128.82" y2="128.82"/>
     </g>
     <g id="svg_48">
      <line fill="none" id="svg_49" stroke="#C0CCD8" stroke-linecap="round" stroke-linejoin="round" stroke-miterlimit="10" x1="127.47" x2="127.47" y1="284.25" y2="291.15"/>
      <line fill="none" id="svg_50" stroke="#C0CCD8" stroke-linecap="round" stroke-linejoin="round" stroke-miterlimit="10" x1="130.91" x2="124.01" y1="287.7" y2="287.7"/>
     </g>
     <g id="svg_51">
      <line fill="none" id="svg_52" stroke="#C0CCD8" stroke-linecap="round" stroke-linejoin="round" stroke-miterlimit="10" x1="518.62" x2="518.62" y1="97.75" y2="104.65"/>
      <line fill="none" id="svg_53" stroke="#C0CCD8" stroke-linecap="round" stroke-linejoin="round" stroke-miterlimit="10" x1="522.07" x2="515.16" y1="101.2" y2="101.2"/>
     </g>
     <path d="m178.8,244.96l-69.05,0c-1.2,0 -2.18,-0.98 -2.18,-2.18l0,0c0,-1.21 0.98,-2.19 2.18,-2.19l69.05,0c1.21,0 2.19,0.98 2.19,2.19l0,0c0,1.2 -0.98,2.18 -2.19,2.18z" fill="none" id="svg_54" stroke="#C0CCD8" stroke-miterlimit="10"/>
     <path d="m585.37,189.82l-69.05,0c-1.21,0 -2.19,-0.98 -2.19,-2.18l0,0c0,-1.21 0.98,-2.19 2.19,-2.19l69.05,0c1.2,0 2.18,0.98 2.18,2.19l0,0c0,1.2 -0.98,2.18 -2.18,2.18z" fill="none" id="svg_55" stroke="#C0CCD8" stroke-miterlimit="10"/>
     <path d="m595.47,204.5l-25.52,0c-0.6,0 -1.09,-0.49 -1.09,-1.09l0,0c0,-0.6 0.49,-1.09 1.09,-1.09l25.52,0c0.61,0 1.1,0.49 1.1,1.09l0,0c0,0.6 -0.49,1.09 -1.1,1.09z" fill="#C0CCD8" id="svg_56"/>
     <path d="m527.93,152.47l-25.53,0c-0.6,0 -1.09,-0.49 -1.09,-1.09l0,0c0,-0.61 0.49,-1.1 1.09,-1.1l25.53,0c0.6,0 1.09,0.49 1.09,1.1l0,0c0,0.6 -0.49,1.09 -1.09,1.09z" fill="#C0CCD8" id="svg_57"/>
     <path d="m153.14,225.66l-19.53,0c-0.6,0 -1.09,-0.49 -1.09,-1.1l0,0c0,-0.6 0.49,-1.09 1.09,-1.09l19.53,0c0.6,0 1.09,0.49 1.09,1.09l0,0c0,0.61 -0.49,1.1 -1.09,1.1z" fill="#C0CCD8" id="svg_58"/>
     <g id="svg_59">
      <path d="m547.25,129.28l21.14,0c2.04,0 3.7,-1.66 3.7,-3.7l0,-21.14c0,-2.04 -1.66,-3.7 -3.7,-3.7l-21.14,0c-2.04,0 -3.7,1.66 -3.7,3.7l0,21.14c0,2.04 1.66,3.7 3.7,3.7z" fill="none" id="svg_60" stroke="#C0CCD8" stroke-linejoin="round" stroke-miterlimit="10"/>
      <g id="svg_61">
       <g id="svg_62">
        <path d="m561.86,113.81l-0.49,2.45l2.72,0l0,2.17l-3.14,0l-0.81,4.29l-2.32,0l0.82,-4.29l-3,0l-0.81,4.29l-2.27,0l0.79,-4.29l-2.52,0l0,-2.17l2.93,0l0.49,-2.45l-2.66,0l0,-2.21l3.05,0l0.82,-4.3l2.31,0l-0.81,4.3l3.04,0l0.83,-4.3l2.27,0l-0.83,4.3l2.54,0l0,2.21l-2.95,0zm-5.81,2.45l3.02,0l0.5,-2.45l-3.03,0l-0.49,2.45z" fill="#C0CCD8" id="svg_63"/>
       </g>
      </g>
     </g>
    </g>
    <g id="svg_64">
     <g id="svg_65">
      <path d="m317.5,326.72l-20.05,-131.49l-90.3,0l21.65,139.33c1.47,9.44 9.34,16.09 19.06,16.09l151.83,0l1.11,-12.77l-70.12,0c-6.73,0 -12.18,-4.61 -13.18,-11.16z" fill="#475577" id="svg_66"/>
      <path d="m232.04,326.72l-19.31,-126.63c-0.43,-2.85 -2.81,-4.86 -5.75,-4.86l-0.17,0c-4.12,0 -7.48,3.85 -6.86,7.84l20.43,131.49c1.46,9.45 9.34,16.09 19.05,16.09l97.79,0l1.12,-12.76l-93.12,0c-6.73,-0.01 -12.19,-4.62 -13.18,-11.17z" fill="#717A91" id="svg_67"/>
      <g id="svg_68">
       <g id="svg_69">
        <g id="svg_70">
         <line fill="none" id="svg_71" stroke="#544943" stroke-miterlimit="10" stroke-width="1.5" x1="293.16" x2="293.16" y1="350.65" y2="422.43"/>
        </g>
        <g id="svg_72">
         <g id="svg_73">
          <path d="m252.93,428.77l0,0c0,-3.5 2.83,-6.34 6.34,-6.34l67.79,0c3.5,0 6.34,2.84 6.34,6.34l0,0" fill="none" id="svg_74" stroke="#544943" stroke-miterlimit="10" stroke-width="1.5"/>
         </g>
         <g id="svg_75">
          <path d="m286.23,428.77l0,0c0,-3.5 2.83,-6.34 6.34,-6.34" fill="none" id="svg_76" stroke="#544943" stroke-miterlimit="10" stroke-width="1.5"/>
         </g>
         <g id="svg_77">
          <g id="svg_78">
           <path d="m259.33,435.17c0,3.54 -2.87,6.4 -6.4,6.4c-3.54,0 -6.41,-2.86 -6.41,-6.4c0,-3.53 2.87,-6.4 6.41,-6.4c3.53,0 6.4,2.86 6.4,6.4z" fill="#717A91" id="svg_79"/>
          </g>
          <g id="svg_80" opacity="0.45">
           <path d="m255.28,435.17c0,1.3 -1.06,2.35 -2.35,2.35s-2.35,-1.05 -2.35,-2.35c0,-1.3 1.05,-2.35 2.35,-2.35s2.35,1.05 2.35,2.35z" fill="#8E9DB2" id="svg_81"/>
          </g>
         </g>
         <g id="svg_82">
          <path d="m292.63,435.17c0,3.54 -2.87,6.4 -6.4,6.4c-3.54,0 -6.41,-2.86 -6.41,-6.4c0,-3.53 2.87,-6.4 6.41,-6.4c3.53,0 6.4,2.86 6.4,6.4z" fill="#717A91" id="svg_83"/>
         </g>
         <g id="svg_84" opacity="0.45">
          <path d="m288.58,435.17c0,1.3 -1.06,2.35 -2.35,2.35c-1.3,0 -2.35,-1.05 -2.35,-2.35c0,-1.3 1.05,-2.35 2.35,-2.35c1.29,0 2.35,1.05 2.35,2.35z" fill="#8E9DB2" id="svg_85"/>
         </g>
         <g id="svg_86">
          <g id="svg_87">
           <path d="m339.8,435.17c0,3.54 -2.87,6.4 -6.4,6.4c-3.54,0 -6.4,-2.86 -6.4,-6.4c0,-3.53 2.86,-6.4 6.4,-6.4c3.53,0 6.4,2.86 6.4,6.4z" fill="#717A91" id="svg_88"/>
          </g>
          <g id="svg_89" opacity="0.45">
           <path d="m335.75,435.17c0,1.3 -1.05,2.35 -2.35,2.35c-1.3,0 -2.35,-1.05 -2.35,-2.35c0,-1.3 1.05,-2.35 2.35,-2.35c1.3,0 2.35,1.05 2.35,2.35z" fill="#8E9DB2" id="svg_90"/>
          </g>
         </g>
        </g>
       </g>
      </g>
     </g>
     <g id="svg_91">
      <g id="svg_92">
       <path d="m363.74,209.34l22.88,-34.19l7.1,1.47c-5.42,18.26 -9,25.48 -9,25.48" fill="#FFCBBB" id="svg_93"/>
       <path d="m390.07,182.28l3.65,-5.66c0,0 6.79,-1.56 9.25,-2.82c2.47,-1.26 4.12,-3.49 4.8,-5.38c0.53,-1.44 0.3,-5.69 -0.32,-5.76c-1.46,-0.16 -4.37,5.28 -5.73,5.61c-1.37,0.32 -5.79,-0.02 -8.22,0.3c-4.09,0.54 -5.82,4.37 -5.82,4.37l-3.74,6.79" fill="#FFCBBB" id="svg_94"/>
       <polyline fill="#E6E8EF" id="svg_95" points="378.695,185.16 382.714,179.334 393.108,183.999 389.808,192.85      "/>
       <path d="m295.19,172.97c0,0 16.95,-7.79 31.88,5.48c14.92,13.28 25.02,25.62 30.5,29.61l22.49,-25.87l12.56,5.9c-3.31,18.73 -12.61,48.61 -35.35,51.69c-24.61,3.32 -60.7,-27.01 -60.7,-27.01" fill="#B9B5B2" id="svg_96"/>
       <line fill="none" id="svg_97" stroke="#846A6A" stroke-miterlimit="10" x1="350.27" x2="357.57" y1="216.65" y2="208.06"/>
      </g>
      <path d="m386.23,430.76l-1.9,7.3c-0.46,1.78 0.87,3.51 2.71,3.51l22.14,0c1.33,0 2.41,-1.08 2.41,-2.41l0,0c0,-1.05 -0.68,-1.98 -1.68,-2.3l-15.13,-6.1" fill="#173789" id="svg_98"/>
      <path d="m373.47,316.62c-3.54,37.15 12.76,114.14 12.76,114.14s3.87,4.68 8.55,0c0,0 3.93,-73.41 8.06,-106.41" fill="#FFCBBB" id="svg_99"/>
      <path d="m320.65,273.1l25.41,13.33l0,0.26c0,0 51.85,-3.48 59.69,15.03c12.28,28.98 14.37,123.27 14.37,123.27l-37.95,0c0,0 -14.12,-79.19 -18.95,-84.02c-4.83,-4.83 -24.74,-4.48 -61.36,-4.48c-41.13,0 -21.05,-53.03 -5.74,-57.58" fill="#FCA32D" id="svg_100"/>
      <path d="m384.8,424.99c0,0 -11.28,-81.72 -19.57,-87.71c-10.12,-7.32 -57.91,-2.54 -57.91,-2.54" fill="none" id="svg_101" stroke="#CE680D" stroke-miterlimit="10"/>
      <path d="m306.65,430.76l-1.9,7.3c-0.46,1.78 0.88,3.51 2.71,3.51l22.14,0c1.33,0 2.41,-1.08 2.41,-2.41l0,0c0,-1.05 -0.68,-1.98 -1.68,-2.3l-15.13,-6.1" fill="#173789" id="svg_102"/>
      <path d="m310.33,316.62c-3.53,37.15 -3.68,114.14 -3.68,114.14s3.87,4.68 8.55,0c0,0 13.32,-73.41 17.46,-106.41" fill="#FFCBBB" id="svg_103"/>
      <g id="svg_104">
       <path d="m275.83,284.77c0,0 66.66,1.07 75.37,21.27c10.73,24.83 -6.95,118.95 -6.95,118.95l-40.17,0l0,-84.2c0,-1.63 -1.28,-3.1 -2.91,-3.05c-5.56,0.15 -17.98,0.15 -33.74,0.15c-41.13,0 -21.05,-64.01 -5.74,-68.56" fill="#FFB548" id="svg_105"/>
       <path d="m275.83,284.77c0,0 66.66,1.07 75.37,21.27c2.91,6.73 4.42,18.19 3.64,31.85" fill="none" id="svg_106" stroke="#CE680D" stroke-miterlimit="10"/>
       <path d="m309.68,424.99c0,0 0.41,-84.53 -1.53,-89.04c-2.7,-6.27 -11.91,-3.19 -33.28,-3.19c-41.13,0 -24.37,-58.88 -9.06,-63.44" fill="none" id="svg_107" stroke="#ED841B" stroke-miterlimit="10"/>
       <path d="m250.23,295.06c0,0 21.11,0.51 24.31,-2.69c3.2,-3.2 0,-17.7 0,-17.7" fill="none" id="svg_108" stroke="#ED841B" stroke-miterlimit="10"/>
       <path d="m249.71,297.89c0,0 24.11,0.51 27.76,-2.69s0,-17.72 0,-17.72" fill="none" id="svg_109" stroke="#ED841B" stroke-dasharray="3,2" stroke-miterlimit="10"/>
      </g>
      <g id="svg_110">
       <path d="m245.64,196.79c0,0 -5.06,89.9 2.6,89.9c7.66,0 92.82,-0.26 97.82,-0.26s-6.69,-76.88 -23.51,-93.12c0,0 -24.95,-27.07 -35.95,-24.48c-10.99,2.59 -40.96,27.96 -40.96,27.96z" fill="#B9B5B2" id="svg_111"/>
       <line fill="none" id="svg_112" stroke="#846A6A" stroke-miterlimit="10" x1="340.65" x2="330.08" y1="237.68" y2="194.33"/>
      </g>
      <g id="svg_113">
       <path d="m202.56,213.07l-22.89,-34.19l-7.09,1.47c5.42,18.25 9,25.48 9,25.48" fill="#FFCBBB" id="svg_114"/>
       <path d="m176.22,186.01l-3.64,-5.66c0,0 -6.79,-1.56 -9.26,-2.82c-2.47,-1.26 -4.11,-3.49 -4.8,-5.38c-0.53,-1.44 -0.3,-5.69 0.32,-5.76c1.46,-0.16 4.37,5.28 5.73,5.61c1.37,0.32 5.79,-0.02 8.22,0.3c4.09,0.54 5.82,4.37 5.82,4.37l3.74,6.79" fill="#FFCBBB" id="svg_115"/>
       <polyline fill="#E6E8EF" id="svg_116" points="187.597,188.889 183.578,183.063 173.184,187.728 176.485,196.579      "/>
       <path d="m277.11,173.49c0,0 -16.74,-11.91 -34.04,2.71c-16.12,13.63 -26.86,41.14 -30.46,41.14c-2.51,0 -18.02,-19.77 -27.27,-31.88l-11.02,5.89c6.94,21.19 22.08,57.24 44.72,57.24c17.76,0 54.24,-41.61 54.24,-41.61" fill="#B9B5B2" id="svg_117"/>
       <line fill="none" id="svg_118" stroke="#846A6A" stroke-miterlimit="10" x1="244.18" x2="271.17" y1="235.28" y2="212.77"/>
      </g>
      <g id="svg_119">
       <polyline fill="#E6E8EF" id="svg_120" points="278.723,175.607        294.818,192.85 296.924,172.916      " stroke="#846A6A" stroke-linejoin="round" stroke-miterlimit="10"/>
       <path d="m291.65,158.2l4.53,9.92c0,0 1.82,5.69 -5.73,8.26c-8.27,2.82 -13.34,-2.9 -13.34,-2.9l-1.19,-15.57" fill="#FFCBBB" id="svg_121"/>
       <path d="m276.68,167.81c0,0 5.95,7.47 13.77,8.57l-5.68,8.43c-4.6,-2.59 -10.23,-12.65 -10.23,-12.65l2.14,-4.35z" fill="#FFFFFF" id="svg_122"/>
       <path d="m295.7,166.76c0,0 -0.95,5.33 -5.25,9.62l6.47,4.89c1.49,-3.66 1.32,-9.36 1.32,-9.36l-2.54,-5.15z" fill="#FFFFFF" id="svg_123"/>
       <path d="m298.36,142.18c0,0 4.27,16.36 -2.15,20.5c-6.41,4.13 -17.57,-2.16 -18.22,-4.21c-0.64,-2.06 -3.55,-19.53 0.63,-20.84c7.44,-2.32 17.55,-2.43 19.74,4.55z" fill="#FFCBBB" id="svg_124"/>
       <g id="svg_125">
        <g id="svg_126">
         <path d="m298.22,147.49c0.1,0.45 -0.17,0.9 -0.62,1c-0.45,0.11 -0.9,-0.17 -1.01,-0.62c-0.1,-0.45 0.18,-0.9 0.63,-1c0.44,-0.11 0.89,0.17 1,0.62z" fill="#173789" id="svg_127"/>
         <g id="svg_128">
          <path d="m296.79,142.61c0.28,0.04 1.54,0.17 1.27,0.79c-0.12,0.28 -0.56,0.27 -0.8,0.26c-0.26,-0.02 -0.52,-0.05 -0.76,0.03c0.07,0.07 0.12,0.16 0.16,0.26c0.08,0.18 -0.54,0.2 -0.61,0.2c-0.62,0 -1.36,-0.11 -2.11,0.39c0.48,-1.77 2.39,-2 2.85,-1.93z" fill="#173789" id="svg_129"/>
         </g>
         <path d="m287.94,149.75c0.02,0.46 0.41,0.82 0.87,0.79c0.46,-0.03 0.82,-0.42 0.79,-0.88c-0.02,-0.46 -0.42,-0.81 -0.88,-0.79c-0.46,0.03 -0.81,0.42 -0.78,0.88z" fill="#173789" id="svg_130"/>
         <g id="svg_131">
          <path d="m285.46,146.45c-0.6,0.32 -1.1,0.76 -0.97,1.26c0.11,0.4 0.5,0.3 0.75,0.11c0.41,-0.33 0.87,-0.58 1.37,-0.73c-0.22,0.18 -0.35,0.46 -0.34,0.75c1.56,-0.16 2.92,-1.5 3.09,-3.06c-0.01,0.11 -1.02,0.74 -1.17,0.8c-0.88,0.41 -1.85,0.4 -2.73,0.87z" fill="#173789" id="svg_132"/>
         </g>
        </g>
        <path d="m294.06,148.47c0,0 2.28,5.74 1.47,6.24c-0.82,0.5 -3.68,0.42 -3.68,0.42" fill="none" id="svg_133" stroke="#EF977F" stroke-miterlimit="10"/>
       </g>
       <path d="m294.15,163.63c0,0 -6.51,2.51 -12.21,-2.06" fill="none" id="svg_134" stroke="#EF977F" stroke-miterlimit="10"/>
       <path d="m290.45,159.79c0,0 0.58,-2.53 4.74,-2.53" fill="none" id="svg_135" stroke="#EF977F" stroke-miterlimit="10"/>
       <g id="svg_136">
        <path d="m301.98,133.4c-0.07,-0.78 -0.2,-1.61 -0.73,-2.18c-0.61,-0.65 -1.6,-0.78 -2.49,-0.78c-3.14,-0.03 -6.28,0.97 -8.82,2.81c0.7,-0.61 1.39,-1.21 2.09,-1.82c0.56,-0.48 1.79,-1.24 1.2,-2.14c-0.53,-0.79 -2.02,-0.34 -2.78,-0.35c-3.58,-0.04 -7.03,1.24 -10.33,2.5c-1.62,0.62 -3.26,1.26 -4.73,2.19c-1.47,0.93 -2.78,2.2 -3.48,3.79c-0.62,1.39 -0.75,2.95 -0.74,4.48c0.02,2.74 0.45,5.46 0.88,8.17c0.47,2.95 1.18,8.77 5.15,9.13c0.77,0.06 1.61,0.11 2.23,-0.34c0.62,-0.45 0.84,-1.26 0.93,-2.02c0.15,-1.23 0.06,-2.49 -0.23,-3.69c0.74,0.4 1.44,1.07 2.28,0.95c0.27,-0.04 0.55,-0.19 0.65,-0.45c0.06,-0.16 0.04,-0.35 0.03,-0.52c-0.31,-2.83 -0.48,-5.64 -0.67,-8.48c4.06,-0.86 8.15,-1.6 12.25,-2.22c1.82,-0.27 3.75,-0.57 5.16,-1.75c2.02,-1.69 2.37,-4.66 2.15,-7.28z" fill="#173789" id="svg_137"/>
       </g>
       <g id="svg_138">
        <path d="m281,154.24c-0.68,-1.66 -1.85,-3.67 -3.7,-2.54c-0.65,0.4 -1.01,1.26 -1.27,2.08c-0.84,2.75 1.13,6.99 3.83,6.6c1.31,-0.2 2.04,-1.76 2.58,-3.04" fill="#FFCBBB" id="svg_139"/>
       </g>
      </g>
     </g>
    </g>
    <g id="svg_140">
     <g id="svg_141">
      <path d="m526.15,332.89c-0.01,-8.9 3.81,-17.75 10.29,-23.86c3.19,-3.01 7.02,-5.34 11.13,-6.86c2.33,-0.85 13.45,-1.69 13.45,-1.69s-1.29,8.49 -3.51,12.77c-5.17,9.98 -15.39,18.36 -31.36,19.64" fill="#8EBCA2" id="svg_142"/>
     </g>
     <g id="svg_143">
      <path d="m558.88,358.24c4.02,-4.94 9.84,-8.38 16.1,-9.53c6.26,-1.15 12.91,0 18.43,3.19c0.17,0.1 0.37,0.23 0.42,0.43c0.05,0.24 -0.12,0.46 -0.28,0.65c-5.17,5.79 -13.19,8.91 -20.92,8.14c-3.39,-0.34 -10.51,-1.83 -13.75,-2.88" fill="#A2CCB6" id="svg_144"/>
     </g>
     <g id="svg_145">
      <path d="m567.82,344.69c0.01,-7.76 2.59,-14.74 7.15,-19.3s11.06,-6.67 17.99,-5.86c0.23,0.03 0.48,0.08 0.66,0.28c0.22,0.25 0.23,0.6 0.22,0.9c-0.4,9.35 -5.09,17.09 -12.24,20.19c-3.14,1.37 -10.27,3.33 -13.78,3.79" fill="#8EBCA2" id="svg_146"/>
     </g>
     <g id="svg_147">
      <path d="m579.88,330.8c3.07,-4.95 6.82,-9.49 11.09,-13.46c1.72,-1.59 3.55,-3.11 5.61,-4.22c6.69,-3.59 14.94,-2.48 22.13,-0.04c-2.86,5.43 -6.59,10.75 -12.07,13.5c-2.43,1.22 -5.1,1.88 -7.75,2.47c-5.26,1.17 -13.67,1.06 -19.01,1.75" fill="#A2CCB6" id="svg_148"/>
     </g>
     <g id="svg_149">
      <path d="m576.05,317.83c-13.38,-7.01 -15.35,-21.63 -15.69,-27.03c-0.21,-3.39 0.01,-7.16 2.83,-9.6c16.58,5.84 20.81,17.06 12.86,36.63" fill="#8EBCA2" id="svg_150"/>
     </g>
     <g id="svg_151">
      <path d="m518.39,315.72c1.04,-7.12 1.99,-14.77 -1.24,-21.19c-1.16,-2.31 -2.82,-4.33 -4.62,-6.18c-4.35,-4.48 -10.04,-8.18 -16.29,-8.19c-1.12,6.67 0.24,13.73 3.75,19.51c3.51,5.78 9.15,10.23 15.59,12.31" fill="#8EBCA2" id="svg_152"/>
     </g>
     <g id="svg_153">
      <path d="m557.31,362.3c-7.46,-2.5 -13.8,-8.18 -17.1,-15.32c-3.29,-7.14 -3.49,-15.65 -0.54,-22.94c0.13,-0.33 0.3,-0.68 0.63,-0.79c0.32,-0.1 0.65,0.06 0.94,0.23c11.54,6.63 19.44,25.94 16.07,38.82" fill="#A2CCB6" id="svg_154"/>
     </g>
     <g id="svg_155">
      <path d="m525.94,322.97c-2.15,-6.23 -2.04,-13.22 0.32,-19.37c2.36,-6.15 6.94,-11.43 12.7,-14.62c2.35,-1.3 4.91,-2.28 6.99,-3.98c0.7,3.13 1.18,6.31 1.42,9.51c0.23,3.17 0.23,6.39 -0.61,9.45c-2.17,7.91 -9.46,13.29 -16.78,16.98" fill="#A2CCB6" id="svg_156"/>
     </g>
     <g id="svg_157">
      <path d="m516.27,321.77c-12.02,1.45 -26.82,-3.39 -33.24,-14.72c20.55,-10.44 33.24,5.54 33.24,14.72" fill="#A2CCB6" id="svg_158"/>
     </g>
     <g id="svg_159">
      <path d="m523.28,348.58c-2.69,-9.23 -9.78,-16.8 -18.33,-19.56c-8.54,-2.77 -18.29,-0.65 -25.2,5.47c-0.28,0.25 -0.59,0.58 -0.57,0.98c0.02,0.24 0.15,0.45 0.29,0.64c4.59,6.64 11.92,10.56 19.41,12.21c7.49,1.65 15.23,1.26 22.86,0.69" fill="#A2CCB6" id="svg_160"/>
     </g>
     <g id="svg_161">
      <g id="svg_162">
       <path d="m507.83,299.37c6.24,6.23 10.12,14.13 13.03,22.36c3,8.51 5.2,17.33 6.94,26.18c3.69,18.67 4.67,37.57 6.82,56.43c0.03,0.26 0.44,0.28 0.43,0c-0.83,-19.21 -2.89,-38.7 -6.72,-57.55c-1.87,-9.2 -4.21,-18.39 -7.57,-27.17c-2.9,-7.58 -6.79,-14.81 -12.73,-20.45c-0.13,-0.13 -0.33,0.07 -0.2,0.2l0,0z" fill="#597F6E" id="svg_163"/>
      </g>
     </g>
     <g id="svg_164">
      <g id="svg_165">
       <path d="m529.93,356.32c-4.61,-7.47 -12.26,-11.88 -20.21,-15.11c-8.88,-3.61 -18.95,-5.88 -28.58,-5.23c-0.23,0.02 -0.24,0.36 0,0.37c17.53,0.78 37.58,5.03 48.36,20.22c0.19,0.26 0.6,0.03 0.43,-0.25l0,0z" fill="#597F6E" id="svg_166"/>
      </g>
     </g>
     <g id="svg_167">
      <g id="svg_168">
       <path d="m526.29,338.78c-0.07,-7.04 -0.81,-14.1 0.58,-21.07c1.29,-6.48 3.87,-12.35 7.75,-17.69c0.11,-0.15 -0.14,-0.34 -0.26,-0.2c-9.41,10.58 -9.52,25.7 -8.29,38.96c0.01,0.14 0.22,0.15 0.22,0l0,0z" fill="#597F6E" id="svg_169"/>
      </g>
     </g>
     <g id="svg_170">
      <g id="svg_171">
       <path d="m498.41,310.92c5.14,0.64 9.68,4.09 13.57,7.28c3.87,3.18 7.33,6.84 11.19,10.03c0.15,0.12 0.37,-0.08 0.22,-0.23c-3.89,-3.89 -8.06,-7.66 -12.42,-11.03c-3.65,-2.83 -7.83,-5.72 -12.56,-6.15c-0.07,-0.01 -0.07,0.09 0,0.1l0,0z" fill="#597F6E" id="svg_172"/>
      </g>
     </g>
     <g id="svg_173">
      <g id="svg_174">
       <path d="m552.62,379.9c2.82,-14.62 8.7,-28.01 18.47,-39.37c4.7,-5.47 10.12,-10.34 16.09,-14.4c6.27,-4.25 12.96,-7.15 20.02,-9.81c0.29,-0.11 0.18,-0.55 -0.13,-0.47c-14.19,3.7 -27.27,13.51 -36.64,24.54c-9.34,11.02 -16.43,25 -18.18,39.46c-0.02,0.21 0.33,0.26 0.37,0.05l0,0z" fill="#597F6E" id="svg_175"/>
      </g>
     </g>
     <g id="svg_176">
      <g id="svg_177">
       <path d="m568.88,292.52c7.03,14.8 9.63,31.59 2.51,46.82c-0.14,0.3 0.28,0.56 0.46,0.26c8.54,-14.22 4.4,-33.37 -2.61,-47.29c-0.12,-0.24 -0.48,-0.03 -0.36,0.21l0,0z" fill="#597F6E" id="svg_178"/>
      </g>
     </g>
     <path d="m578.03,370.19l0,11.71c0,46.46 -12.23,59.67 -12.23,59.67l-37.87,0c0,0 -12.24,-13.21 -12.24,-59.67l0,-11.71l62.34,0z" fill="#F2F5F9" id="XMLID_547_"/>
    </g>
    <g id="svg_179">
     <g id="svg_180">
      <line fill="none" id="svg_181" stroke="#544943" stroke-miterlimit="10" stroke-width="1.5" x1="171.35" x2="203.47" y1="441.57" y2="287.58"/>
      <line fill="none" id="svg_182" stroke="#544943" stroke-miterlimit="10" stroke-width="1.5" x1="235.58" x2="203.47" y1="441.57" y2="287.58"/>
     </g>
     <g id="svg_183">
      <line fill="none" id="svg_184" stroke="#544943" stroke-miterlimit="10" stroke-width="1.5" x1="495.73" x2="527.84" y1="441.57" y2="287.58"/>
      <line fill="none" id="svg_185" stroke="#544943" stroke-miterlimit="10" stroke-width="1.5" x1="559.96" x2="527.84" y1="441.57" y2="287.58"/>
     </g>
     <rect fill="#E7EAF2" height="9.21" id="svg_186" width="383.62" x="172.39" y="278.37"/>
     <g id="svg_187">
      <path d="m537.52,260.81l-135.56,0c-2.42,0 -4.25,-2.18 -3.83,-4.57l15.58,-87.61c0.49,-2.78 2.91,-4.8 5.73,-4.8l135.56,0c2.42,0 4.25,2.19 3.83,4.57l-15.58,87.61c-0.49,2.78 -2.91,4.8 -5.73,4.8z" fill="#475577" id="svg_188"/>
      <path d="m540.67,260.81l-135.56,0c-2.42,0 -4.25,-2.18 -3.83,-4.57l15.58,-87.61c0.49,-2.78 2.91,-4.8 5.72,-4.8l135.57,0c2.42,0 4.25,2.19 3.83,4.57l-15.58,87.61c-0.49,2.78 -2.91,4.8 -5.73,4.8z" fill="#C0CCD8" id="svg_189"/>
      <path d="m515.73,260.81l-78.3,0c-1.39,0 -2.45,-1.26 -2.21,-2.64l9,-50.6c0.28,-1.6 1.68,-2.77 3.31,-2.77l78.3,0c1.39,0 2.45,1.26 2.21,2.64l-9,50.6c-0.29,1.6 -1.68,2.77 -3.31,2.77z" fill="#8E9DB2" id="svg_190" opacity="0.45"/>
      <path d="m517.61,260.81l-78.3,0c-1.4,0 -2.46,-1.26 -2.21,-2.64l9,-50.6c0.28,-1.6 1.67,-2.77 3.3,-2.77l78.3,0c1.4,0 2.46,1.26 2.21,2.64l-8.99,50.6c-0.29,1.6 -1.68,2.77 -3.31,2.77z" fill="#C6D2E0" id="svg_191"/>
      <rect fill="#8E9DB2" height="29.76" id="svg_192" width="31.78" x="468.48" y="231.05"/>
      <path d="m498.43,231.05l-29.95,0l0,8.55l8.17,33.94l31.8,0l-10.02,-42.49zm-7.69,33.43c-3.56,0 -7.32,-4.15 -8.41,-9.27c-1.08,-5.13 0.93,-9.28 4.49,-9.28s7.33,4.15 8.41,9.28c1.08,5.12 -0.93,9.27 -4.49,9.27z" fill="#475577" id="svg_193"/>
      <path d="m450.95,273.54l71.18,0l0,4.83l-76.01,0l0,0c0,-2.67 2.16,-4.83 4.83,-4.83z" fill="#475577" id="svg_194"/>
      <rect fill="#C0CCD8" height="4.83" id="svg_195" width="56.91" x="465.23" y="273.54"/>
      <path d="m500.27,231.05l-31.79,0l10.01,42.49l31.8,0l-10.02,-42.49zm-7.8,33.43c-3.56,0 -7.33,-4.15 -8.41,-9.27c-1.09,-5.13 0.92,-9.28 4.48,-9.28c3.56,0 7.33,4.15 8.41,9.28c1.09,5.12 -0.92,9.27 -4.48,9.27z" fill="#C0CCD8" id="svg_196"/>
      <g id="svg_197" opacity="0.65">
       <polygon fill="#8E9DB2" id="svg_198" points="426.021,172.461 424.139,183.052 426.021,183.052 427.904,172.461      "/>
       <polygon fill="#8E9DB2" id="svg_199" points="431.471,172.461 429.588,183.052 431.471,183.052 433.354,172.461      "/>
       <polygon fill="#8E9DB2" id="svg_200" points="436.921,172.461 435.038,183.052 436.921,183.052 438.804,172.461      "/>
       <polygon fill="#8E9DB2" id="svg_201" points="442.371,172.461 440.488,183.052 442.371,183.052 444.254,172.461      "/>
       <polygon fill="#8E9DB2" id="svg_202" points="447.821,172.461 445.938,183.052 447.821,183.052 449.704,172.461      "/>
      </g>
      <g id="svg_203" opacity="0.65">
       <polygon fill="#8E9DB2" id="svg_204" points="497.551,172.461 495.668,183.052 497.551,183.052 499.434,172.461      "/>
       <polygon fill="#8E9DB2" id="svg_205" points="503.278,172.461 501.395,183.052 503.278,183.052 505.161,172.461      "/>
       <polygon fill="#8E9DB2" id="svg_206" points="509.005,172.461 507.122,183.052 509.005,183.052 510.888,172.461      "/>
       <polygon fill="#8E9DB2" id="svg_207" points="514.732,172.461 512.849,183.052 514.732,183.052 516.615,172.461      "/>
       <polygon fill="#8E9DB2" id="svg_208" points="520.459,172.461 518.576,183.052 520.459,183.052 522.342,172.461      "/>
       <polygon fill="#8E9DB2" id="svg_209" points="526.186,172.461 524.303,183.052 526.186,183.052 528.069,172.461      "/>
       <polygon fill="#8E9DB2" id="svg_210" points="531.913,172.461 530.03,183.052 531.913,183.052 533.796,172.461      "/>
       <polygon fill="#8E9DB2" id="svg_211" points="537.64,172.461 535.757,183.052 537.64,183.052 539.523,172.461      "/>
       <polygon fill="#8E9DB2" id="svg_212" points="543.367,172.461 541.484,183.052 543.367,183.052 545.25,172.461      "/>
       <polygon fill="#8E9DB2" id="svg_213" points="549.094,172.461 547.211,183.052 549.094,183.052 550.977,172.461      "/>
      </g>
     </g>
     <g id="svg_214">
      <g id="svg_215" opacity="0.55">
       <linearGradient id="SVGID_1_" x1="0.5" x2="0.5" y1="1" y2="0">
        <stop offset="0" stop-color="#FFFFFF" stop-opacity="0.1"/>
        <stop offset="1" stop-color="#FFFFFF" stop-opacity="0.4"/>
       </linearGradient>
       <path d="m280.45,254.37c0,0 0.89,-0.17 1.25,-0.67c0.74,-1.03 -0.49,-2.12 -1.29,-2.63c-1.03,-0.66 -2.44,-0.88 -2.94,-2.14c-0.56,-1.43 0.41,-3 1.59,-3.78c0.98,-0.65 2.14,-0.98 3.25,-1.4c1.24,-0.46 2.49,-1.21 3.21,-2.37c0.91,-1.44 0.73,-3.31 0.85,-4.94c0.46,-6.38 6.98,-9.54 12.48,-9.68c2.75,-0.06 6.95,0.92 8.77,3.06c0.61,0.71 1.08,1.57 1.26,2.5c0.27,1.44 -0.29,2.77 -1.23,3.84c-0.94,1.08 -2.23,1.71 -3.26,2.68c-1.07,1.01 -0.31,2.06 -0.55,3.26c-0.28,1.33 -1.17,1.9 -2.32,2.54c-2.44,1.36 -5.31,1.7 -7.97,2.44c-0.82,0.23 -1.66,0.51 -2.33,1.05c-0.86,0.7 -1.35,1.74 -2.01,2.64c-1.2,1.63 -3.01,2.8 -5,3.21" fill="url(#SVGID_1_)" id="svg_216"/>
      </g>
      <g id="svg_217">
       <g id="svg_218">
        <path d="m295.74,270.43l-5.21,0l0,-2.49l5.21,0c1.68,0 3.05,-1.36 3.05,-3.04l0,-4.29c0,-1.68 -1.37,-3.04 -3.05,-3.04l-5.21,0l0,-2.49l5.21,0c3.05,0 5.53,2.48 5.53,5.53l0,4.29c0,3.05 -2.48,5.53 -5.53,5.53z" fill="#E8EAEF" id="svg_219"/>
       </g>
      </g>
      <path d="m288.31,276.97l-8.79,0c-3.38,0 -6.12,-2.74 -6.12,-6.12l0,-19.29l21.03,0l0,19.29c0.01,3.38 -2.74,6.12 -6.12,6.12z" fill="#E8EAEF" id="svg_220"/>
      <path d="m270,273.42c0,0 0.2,4.95 7.89,4.95l12.06,0c7.69,0 7.89,-4.95 7.89,-4.95l-27.84,0z" fill="#C6D2E0" id="svg_221"/>
     </g>
     <g id="XMLID_30_">
      <g id="XMLID_96_">
       <g id="svg_222">
        <rect fill="#475577" height="1.98" id="XMLID_143_" width="111.28" x="327.75" y="276.39"/>
        <rect fill="#475577" height="1.59" id="XMLID_142_" width="7.97" x="331.56" y="274.8"/>
        <rect fill="#475577" height="1.59" id="XMLID_141_" width="7.97" x="343.63" y="274.8"/>
        <rect fill="#475577" height="1.59" id="XMLID_140_" width="7.97" x="355.7" y="274.8"/>
        <rect fill="#475577" height="1.59" id="XMLID_139_" width="7.97" x="367.77" y="274.8"/>
        <rect fill="#475577" height="1.59" id="XMLID_138_" width="7.97" x="379.84" y="274.8"/>
        <rect fill="#475577" height="1.59" id="XMLID_137_" width="7.97" x="391.91" y="274.8"/>
        <rect fill="#475577" height="1.59" id="XMLID_136_" width="7.97" x="403.98" y="274.8"/>
        <rect fill="#475577" height="1.59" id="XMLID_135_" width="7.97" x="416.06" y="274.8"/>
        <rect fill="#475577" height="1.59" id="XMLID_134_" width="7.97" x="428.13" y="274.8"/>
       </g>
      </g>
      <g id="XMLID_51_">
       <g id="svg_223">
        <rect fill="#C0CCD8" height="1.98" id="XMLID_133_" width="111.28" x="329.21" y="276.39"/>
        <rect fill="#C0CCD8" height="1.59" id="XMLID_132_" width="7.97" x="333.01" y="274.8"/>
        <rect fill="#C0CCD8" height="1.59" id="XMLID_131_" width="7.97" x="345.08" y="274.8"/>
        <rect fill="#C0CCD8" height="1.59" id="XMLID_129_" width="7.97" x="357.15" y="274.8"/>
        <rect fill="#C0CCD8" height="1.59" id="XMLID_127_" width="7.97" x="369.23" y="274.8"/>
        <rect fill="#C0CCD8" height="1.59" id="XMLID_122_" width="7.97" x="381.3" y="274.8"/>
        <rect fill="#C0CCD8" height="1.59" id="XMLID_121_" width="7.97" x="393.37" y="274.8"/>
        <rect fill="#C0CCD8" height="1.59" id="XMLID_120_" width="7.97" x="405.44" y="274.8"/>
        <rect fill="#C0CCD8" height="1.59" id="XMLID_119_" width="7.97" x="417.51" y="274.8"/>
        <rect fill="#C0CCD8" height="1.59" id="XMLID_118_" width="7.97" x="429.58" y="274.8"/>
       </g>
      </g>
     </g>
    </g>
    <g id="svg_224">
     <g id="svg_225">
      <path d="m170.86,353.02c1.38,-5.49 0.77,-11.46 -1.7,-16.55c-2.48,-5.09 -6.79,-9.27 -11.96,-11.57c-2.1,-0.94 -4.36,-1.59 -6.27,-2.89c-0.37,2.73 -0.54,5.49 -0.51,8.24c0.03,2.73 0.27,5.49 1.22,8.05c2.44,6.6 9.08,10.67 15.62,13.28" fill="#8EBCA2" id="svg_226"/>
     </g>
     <g id="svg_227">
      <g id="svg_228">
       <path d="m171.66,370.74c0.21,-12.79 0.37,-27.39 -9.69,-36.91c-0.15,-0.15 -0.37,0.07 -0.23,0.23c4.51,5.25 7.74,11.58 8.7,18.48c0.84,6.04 0.5,12.14 1,18.2c0.01,0.14 0.22,0.14 0.22,0l0,0z" fill="#597F6E" id="svg_229"/>
      </g>
     </g>
     <g id="svg_230">
      <path d="m155.32,387.51c-0.97,-7.59 -5.18,-14.71 -11.37,-19.21c-3.05,-2.22 -6.56,-3.79 -10.23,-4.63c-2.07,-0.48 -11.65,0.02 -11.65,0.02s2.03,7.09 4.39,10.5c5.49,7.94 15.11,13.97 28.86,13.32" fill="#8EBCA2" id="svg_231"/>
     </g>
     <g id="svg_232">
      <path d="m146.94,363.06c-0.24,-4.59 -1.09,-9.15 -2.5,-13.51c-0.57,-1.75 -1.23,-3.49 -2.21,-5.04c-3.16,-5.01 -9.07,-7.36 -14.76,-8.39c-0.07,4.84 0.48,9.93 3.14,13.91c1.18,1.76 2.72,3.23 4.28,4.64c3.08,2.8 8.74,5.89 12.05,8.39" fill="#A2CCB6" id="svg_233"/>
     </g>
     <g id="svg_234">
      <path d="m179.25,346.34c-0.89,-6.12 -1.72,-12.69 1.07,-18.21c0.99,-1.98 2.42,-3.72 3.96,-5.31c3.74,-3.84 8.63,-7.02 13.99,-7.03c0.97,5.73 -0.2,11.79 -3.21,16.76c-3.02,4.96 -10.28,12.01 -15.81,13.79" fill="#A2CCB6" id="svg_235"/>
     </g>
     <g id="svg_236">
      <path d="m169.42,381.88c5.69,1.18 11.85,-0.09 16.6,-3.43s8.04,-8.7 8.87,-14.45c0.04,-0.25 0.06,-0.54 -0.11,-0.74c-0.17,-0.18 -0.44,-0.2 -0.69,-0.2c-9.83,-0.05 -22.04,9.34 -24.67,18.82" fill="#A2CCB6" id="svg_237"/>
     </g>
     <g id="svg_238">
      <path d="m149.19,359.76c8.1,-4.56 13.31,-13.69 13.46,-23.62c-5.85,-0.33 -10.25,3.27 -12.8,6.37c-3.54,4.32 -3.84,11.91 -0.66,17.25" fill="#A2CCB6" id="svg_239"/>
     </g>
     <g id="svg_240">
      <path d="m155.08,375.78c-2.17,-5.39 -1.49,-11.83 1.76,-16.65c3.24,-4.82 8.95,-7.87 14.76,-7.9c0.24,0 0.52,0.02 0.66,0.22c0.08,0.12 0.09,0.27 0.1,0.41c0.22,4.98 -1.97,9.83 -5.11,13.7c-3.14,3.87 -7.18,6.89 -11.23,9.78" fill="#A2CCB6" id="svg_241"/>
     </g>
     <g id="svg_242">
      <g id="svg_243">
       <path d="m188.13,332.1c-10.8,10.26 -14.57,26.69 -17.44,40.74c-3.31,16.23 -5.17,33.06 -5.78,49.61c-0.01,0.28 0.4,0.27 0.43,0c1.94,-16.2 2.7,-32.44 5.88,-48.49c2.83,-14.32 6.47,-30.94 17.11,-41.65c0.13,-0.13 -0.07,-0.33 -0.2,-0.21l0,0z" fill="#597F6E" id="svg_244"/>
      </g>
     </g>
     <g id="svg_245">
      <g id="svg_246">
       <path d="m155.07,384.35c-0.17,-4.85 0.65,-9.24 1.75,-13.94c0.05,-0.19 -0.24,-0.33 -0.34,-0.14c-2.03,3.92 -2.62,9.83 -1.89,14.15c0.04,0.27 0.49,0.21 0.48,-0.07l0,0z" fill="#597F6E" id="svg_247"/>
      </g>
     </g>
     <g id="svg_248">
      <g id="svg_249">
       <path d="m155.74,343c-6.47,5.87 -8.12,18.17 -5.48,26.14c0.06,0.2 0.35,0.12 0.31,-0.08c-1.92,-8.33 -1.29,-19.63 5.25,-25.99c0.04,-0.04 -0.03,-0.11 -0.08,-0.07l0,0z" fill="#597F6E" id="svg_250"/>
      </g>
     </g>
     <g id="svg_251">
      <g id="svg_252">
       <path d="m158.1,412.54c0.36,-11.29 -1.51,-23.12 -4.61,-33.94c-3.07,-10.67 -7.97,-22.25 -16.12,-30.08c-0.23,-0.22 -0.53,0.11 -0.34,0.34c3.63,4.5 7.01,8.94 9.68,14.09c2.72,5.26 4.81,10.84 6.42,16.54c3.06,10.87 3.92,21.84 4.6,33.04c0.01,0.25 0.36,0.25 0.37,0.01l0,0z" fill="#597F6E" id="svg_253"/>
      </g>
     </g>
     <path d="m191.19,392.88l0,7.99c0,31.69 -10.51,40.7 -10.51,40.7l-32.53,0c0,0 -10.51,-9.01 -10.51,-40.7l0,-7.99l53.55,0z" fill="#F2F5F9" id="XMLID_5_"/>
    </g>
    <line fill="none" id="svg_254" stroke="#475577" stroke-miterlimit="10" stroke-width="2" x1="119.78" x2="630.22" y1="441.57" y2="441.57"/>
   </g>
  </g>
 </g>
</svg>