<?xml version="1.0" standalone="no"?>
<!DOCTYPE svg PUBLIC "-//W3C//DTD SVG 20010904//EN"
 "http://www.w3.org/TR/2001/REC-SVG-20010904/DTD/svg10.dtd">
<svg version="1.0" xmlns="http://www.w3.org/2000/svg"
 width="202.000000pt" height="195.000000pt" viewBox="0 0 202.000000 195.000000"
 preserveAspectRatio="xMidYMid meet">
<metadata>
Created by potrace 1.16, written by Peter Selinger 2001-2019
</metadata>
<g transform="translate(0.000000,195.000000) scale(0.100000,-0.100000)">
<path d="M1007 1568 c-7 -196 -9 -484 -8 -991 l1 -319 124 5 125 4 63 46 c35
26 80 60 102 77 21 16 43 30 49 30 5 0 27 18 47 40 27 30 34 43 27 56 -7 12 1
25 34 55 24 21 49 39 55 39 13 0 28 30 19 38 -3 3 -5 0 -5 -7 0 -7 -4 -10 -9
-6 -14 8 9 67 32 84 13 9 16 16 8 24 -16 16 -14 62 5 105 8 20 16 50 16 65 1
23 3 26 10 13 5 -9 13 -14 18 -11 14 8 -1 99 -17 108 -18 11 -16 54 4 65 14 9
13 13 -10 38 -30 32 -32 45 -16 76 8 15 7 30 -4 62 -8 22 -18 53 -21 67 -6 30
-75 139 -87 139 -4 0 -25 19 -46 41 -64 69 -122 122 -165 150 -43 29 -157 63
-243 74 -27 3 -62 8 -76 11 l-26 5 -6 -183z" fill="#316648" stroke="none"/>
<path d="M860 1725 c0 -35 26 -231 46 -344 14 -79 23 -145 20 -148 -2 -2 -7
15 -11 39 -3 24 -24 115 -46 203 -57 226 -60 238 -65 233 -2 -3 18 -96 46
-207 27 -111 50 -212 49 -224 -1 -30 -73 196 -100 313 -20 89 -33 120 -43 109
-8 -8 41 -199 84 -324 22 -65 40 -122 40 -125 0 -12 -22 29 -51 100 -61 146
-139 310 -139 292 0 -7 23 -63 51 -125 29 -61 57 -128 64 -147 7 -19 29 -70
49 -113 20 -43 36 -81 36 -84 0 -4 -22 31 -50 76 -27 45 -50 84 -50 87 0 9
-163 304 -171 310 -16 9 -10 -11 20 -67 58 -111 193 -355 204 -369 11 -13 10
-13 -7 0 -11 8 -20 13 -20 11 -1 -3 -48 44 -106 103 -114 118 -218 211 -226
204 -2 -3 72 -81 164 -174 167 -167 220 -228 205 -237 -5 -3 -78 40 -163 95
-132 85 -297 178 -315 178 -3 0 -5 -4 -5 -9 0 -4 28 -22 63 -39 54 -27 391
-232 406 -248 7 -7 -38 13 -249 112 -80 37 -154 73 -165 80 -33 21 -95 45 -95
36 0 -9 220 -117 395 -194 121 -54 156 -70 132 -63 -72 20 -272 83 -369 116
-65 22 -139 42 -165 45 -45 5 -47 4 -29 -10 11 -9 26 -16 34 -16 8 0 78 -20
155 -45 78 -24 173 -52 212 -61 38 -10 64 -19 58 -21 -6 -2 -41 3 -78 12 -69
16 -92 18 -83 10 3 -3 61 -17 129 -31 116 -24 152 -34 118 -34 -8 0 -45 7 -84
15 -233 50 -419 85 -456 85 -64 0 -42 -10 57 -25 89 -13 278 -49 344 -65 l35
-8 -35 -2 c-33 -2 -33 -3 -10 -10 29 -10 -209 -3 -345 10 -88 8 -105 7 -92 -6
9 -10 150 -23 262 -24 101 -2 192 -17 113 -19 -20 -1 -70 -8 -110 -17 -51 -11
-102 -14 -168 -10 -59 3 -85 2 -70 -3 41 -15 191 -12 250 4 30 8 80 15 110 14
l55 0 -50 -15 c-27 -7 -84 -18 -125 -24 -132 -17 -261 -43 -253 -51 12 -12
251 28 502 82 85 19 49 2 -62 -28 -124 -34 -330 -104 -324 -109 2 -2 50 12
108 31 109 37 248 75 271 75 7 -1 -32 -16 -87 -35 -104 -34 -393 -170 -340
-159 17 3 91 34 165 69 74 34 169 73 210 85 41 12 88 29 103 37 16 8 31 12 34
10 2 -3 -51 -32 -119 -64 -68 -33 -162 -84 -209 -114 -47 -30 -107 -66 -133
-79 -25 -14 -46 -28 -46 -33 0 -8 82 36 168 90 56 35 287 153 299 153 5 0 -26
-20 -67 -43 -115 -66 -370 -252 -370 -269 0 -5 17 3 38 20 20 16 73 53 117 82
44 30 100 69 124 88 24 18 67 44 95 58 49 24 50 24 21 2 -16 -12 -57 -48 -90
-78 -33 -31 -87 -77 -120 -103 -33 -26 -78 -63 -100 -83 -34 -31 -35 -33 -8
-15 18 12 35 26 38 32 4 5 34 28 67 50 33 23 95 74 138 113 43 39 93 80 111
90 26 15 21 7 -21 -30 -97 -87 -325 -307 -329 -318 -5 -13 84 62 119 99 27 29
262 240 295 265 19 14 19 14 4 -5 -44 -56 -211 -249 -270 -312 -37 -39 -73
-81 -79 -93 -13 -24 119 112 211 219 35 40 83 94 107 120 40 43 39 40 -15 -35
-32 -45 -87 -123 -123 -174 -36 -50 -80 -112 -98 -137 -18 -25 -32 -47 -29
-49 5 -6 43 37 75 84 49 73 213 302 217 302 9 0 -62 -142 -112 -224 -84 -137
-113 -189 -113 -206 0 -8 9 3 19 25 10 22 43 77 73 121 30 45 71 116 93 158
21 42 40 74 42 72 2 -2 -15 -46 -38 -97 -23 -52 -57 -130 -76 -174 -18 -44
-41 -92 -49 -107 -8 -16 -11 -28 -6 -28 5 0 14 10 20 22 40 84 102 222 148
337 60 147 78 184 68 136 -4 -16 -15 -51 -25 -77 -10 -27 -33 -103 -50 -170
-17 -68 -39 -148 -49 -178 -25 -79 -33 -117 -22 -105 6 6 15 30 20 55 20 83
110 381 117 388 4 4 5 -2 2 -13 -7 -22 -66 -359 -73 -415 -4 -32 -4 -33 6 -10
6 13 26 114 46 225 19 110 37 205 39 210 8 17 -18 -365 -30 -430 -4 -26 -4
-27 5 -7 5 12 14 84 20 160 6 75 15 164 19 197 5 37 4 69 -2 83 -7 15 -7 26
-1 30 5 4 9 103 9 234 0 126 -2 222 -4 216 -5 -15 -46 222 -61 352 -18 161
-21 180 -31 180 -5 0 -9 -2 -9 -5z" fill="#000000" stroke="none"/>
</g>
</svg>


