<svg xmlns="http://www.w3.org/2000/svg" viewBox="0 0 1143.21 556.72">
  <path
    d="M689.52 545.43l2.6-239.71c20.36.93 40.78-2.61 61.03.24 9.14 1.29 21.75 4.61 30.43 7.8 49.89 18.35 75.41 82.12 31.08 120.95-2.54 2.23-6.16 3.36-7.83 6.49 1.06 0 1.88.61 2.63 1.28 24.4 21.44 43.52 58.05 75.78 68.45 42.53 13.71 86.14-6.58 126.13-19.4l16.18 34.41c.05 1.45-.99 1.75-1.99 2.32-8.97 5.14-25.69 11.14-35.8 14.59-51.17 17.5-103.3 20.37-149.67-11.11-34.91-23.7-57.1-72.68-105.38-70.55l-2.6 84.25h-42.58zm45.18-118.99h12.6c29.9 0 57.9-39.14 36.08-65.59-6.35-7.7-21.7-16.05-31.74-16.05H734.7v81.64zm-193.09-122.2c145.34-4.79 160.38 227.35 14.26 250.49-158.7 25.14-176-245.16-14.26-250.49zm-6.94 46.9c-86.07 8.06-83.07 165.57 13.63 156.93 82.43-7.36 84.61-166.13-13.63-156.93zm408.58-97.53l4.29-242.65c28.39-9.88 60.26-11.16 89.57-4.45 68.78 15.74 101.8 93.83 42.59 142.45 15.27 16.05 30.22 33.49 43.27 51.4 4.79 6.57 20.74 28.32 20.23 35.46l-37.76 18.52c-11.41-14.44-20.29-30.96-31.88-45.42-19.43-24.24-44.22-42.21-77.18-35.96l-5.34 80.65h-47.79zm72.56-206.71c-6.22-.6-13.24.44-19.55 0l-2.61 83.38c22.76 2.23 56.23-.71 68.48-23.19 17.31-31.75-17.78-57.45-46.32-60.19zM917.18 0v48.64H796.4l-2.62 73.81 74.74 2.62v41.68L792 168.87l-2.55 41.31h127.73v46.03H749.04l1.3-253.61L917.18 0zM46.49 184.13v72.09H0L2.59 17.36C29.46 4.43 62.39.42 92.1 2.62c50.94 3.77 92.76 51.62 86.36 102.8-7.93 63.42-75.45 87.95-131.97 78.71zm0-42.56c37.08 8.05 104.12-19.32 80.27-66.77-13.59-27.03-53.82-35.96-80.27-24.86v91.63zM530.5 5.22l-8.03 41.47c-4 2.57-8.43.22-12.36.18-14.56-.16-39.12.17-32.21 21.78 4.92 15.39 44.18 31.58 58.09 40.95 46.41 31.27 62.25 86.98 17.12 127.96-50.18 45.56-120.87 20.43-145.87-38.35-2.26-5.31-4.31-10.9-3.56-16.77L443 172.11c11.39 11.1 16.15 27.83 30.42 36.52 19.53 11.89 53.47 3.62 55.33-22.33 2.67-37.11-36.91-45.23-60.74-62.59-26.39-19.23-50.62-54.07-33.57-87.25s63.3-39.53 96.06-31.22zM225.48 300.54l-7.92 41.54c-16.12 1.34-48.49-5.98-43.99 20.31 2.6 15.2 43.62 32.95 56.55 41.62 48.7 32.67 62.84 93.93 12.31 132.71-49.4 37.9-108.09 15.71-134.69-36.44-1.85-3.62-8.8-18.79-6.98-21.74l39.84-11.13c11.09 12.63 16.91 31.45 33.64 38.49 18.14 7.63 47.07-.48 49.41-22.68 4.1-38.86-34.19-46.22-58.91-64.24-22.59-16.46-43.88-44.75-37.92-74.23 8.6-42.53 62.05-54.55 98.65-44.21zM288.75 2c59.55-4.91 103.56 36.92 94.77 97.33-6.56 45.07-44.27 73.43-88.95 73.58C179.61 173.29 183.8 10.66 288.75 2zm1.72 43.4c-49.38 5.6-50.25 81.65 3.25 84.86 63.52 3.81 57.32-91.74-3.25-84.86zM728.62 0v43.43l-56.44 2.65-6.56 207.53h-41.71l1.3-207.58h-57.79c-.28 0-3.91-3.63-3.91-3.91V2.61L728.61 0zM425.35 303.98v43.43l-56.49 2.6-5.21 206.71H320.2l2.61-206.71h-57.79c-.28 0-3.91-3.63-3.91-3.91v-39.52l164.23-2.61zm595.98 91.94l-112.84 3.6c9.02 42.61 54.32 32.41 85.07 22.64l13.62 28.59c.43.9.56 1.73-.01 2.63-.41.64-11.23 6.33-12.93 7.09-66.62 29.76-142.99-13.54-124.26-91.19 18.23-75.6 132.4-83.02 150.21-4.53 2.21 9.73 3.57 21.49 1.15 31.18zm-43.32-31.14c-4.31-28.46-54.01-26.98-59.09 0h59.09zM381.04 216.26v41.25l-1.31 1.31H222.02v-42.56h159.02z" />
</svg>